<?xml version="1.0" standalone="no"?>
<!DOCTYPE svg PUBLIC "-//W3C//DTD SVG 20010904//EN"
 "http://www.w3.org/TR/2001/REC-SVG-20010904/DTD/svg10.dtd">
<svg version="1.0" xmlns="http://www.w3.org/2000/svg"
 width="3362.000000pt" height="1132.000000pt" viewBox="0 0 3362.000000 1132.000000"
 preserveAspectRatio="xMidYMid meet">

<g transform="translate(0.000000,1132.000000) scale(0.100000,-0.100000)"
fill="#000000" stroke="none">
<path d="M6180 11274 c-407 -28 -684 -85 -1174 -240 -398 -127 -645 -224 -961
-379 -312 -153 -590 -312 -875 -500 -327 -216 -499 -355 -716 -577 -158 -161
-250 -296 -382 -555 -157 -309 -172 -352 -281 -818 -55 -239 -89 -476 -112
-780 -18 -255 -23 -1108 -8 -1595 27 -910 12 -1469 -52 -1968 -10 -77 -14 -90
-25 -81 -21 17 -99 3 -171 -30 -99 -47 -433 -289 -758 -552 -360 -290 -473
-401 -596 -589 -78 -118 -84 -146 -41 -182 16 -13 34 -41 40 -63 38 -134 177
-243 377 -295 102 -27 292 -29 410 -5 319 66 635 241 816 453 46 53 71 71 164
119 160 82 344 184 862 480 254 145 470 266 479 270 16 6 16 -4 10 -118 -10
-182 -53 -608 -62 -618 -2 -2 -11 2 -19 9 -19 16 -107 -1 -170 -33 -150 -76
-753 -535 -1059 -807 -124 -110 -211 -209 -295 -340 -71 -110 -76 -139 -31
-178 17 -15 30 -34 30 -42 0 -36 55 -122 111 -174 67 -63 153 -107 266 -138
118 -32 310 -30 460 5 281 65 552 214 737 407 92 96 100 102 268 191 213 113
328 177 773 432 193 110 494 281 670 379 296 164 320 176 324 155 7 -42 -31
-503 -59 -707 -29 -221 -66 -400 -126 -619 -118 -429 -279 -689 -508 -820
-241 -138 -504 -170 -677 -82 -57 29 -188 121 -189 133 0 4 25 24 56 45 176
120 349 259 574 459 25 22 61 53 81 70 34 27 340 290 560 482 138 119 203 216
174 256 -29 39 -140 -2 -285 -102 -171 -119 -568 -418 -600 -452 -3 -3 -52
-43 -110 -90 -241 -195 -391 -344 -486 -485 -41 -60 -74 -120 -74 -131 0 -12
9 -33 20 -47 12 -15 28 -50 36 -78 9 -29 26 -69 39 -89 55 -86 183 -168 325
-207 89 -25 323 -25 435 -1 301 66 599 232 786 439 54 60 83 82 151 116 110
56 356 189 488 266 58 33 121 69 140 80 19 10 60 34 90 52 30 18 75 44 100 57
25 14 119 68 210 120 192 111 436 248 725 408 45 25 407 222 565 308 36 19 99
54 140 77 41 23 129 70 195 105 66 35 167 89 225 120 173 94 257 139 657 348
424 222 494 265 582 357 103 107 85 131 -97 127 -117 -3 -126 -2 -148 19 -96
90 -194 600 -194 1002 0 105 21 361 40 502 59 429 224 926 490 1480 69 144
252 497 310 600 13 22 34 60 48 85 310 554 589 969 939 1394 144 175 176 217
209 274 21 35 45 67 54 72 9 5 127 43 261 85 134 41 264 85 289 98 54 27 108
98 109 144 1 27 -7 39 -48 71 -127 101 -382 201 -661 261 -224 47 -361 66
-735 102 -167 17 -699 17 -825 1 -158 -21 -379 -60 -455 -82 -16 -4 -43 -11
-58 -15 l-29 -6 45 58 c24 32 61 84 81 115 20 32 44 62 54 67 9 5 130 44 267
86 283 88 313 101 351 150 23 30 26 42 22 86 -3 28 -14 63 -25 77 -24 32 -224
139 -343 183 -482 176 -1379 261 -1960 185 -58 -8 -106 -13 -108 -11 -2 2 26
39 63 82 36 43 96 122 132 177 47 68 76 102 97 111 17 7 128 43 246 80 268 83
311 100 343 133 35 37 40 64 27 127 -14 67 -37 88 -169 154 -279 140 -668 231
-1181 276 -164 15 -585 26 -690 19z m883 -1052 c-59 -64 -124 -136 -143 -158
-32 -38 -45 -44 -160 -79 -696 -206 -1204 -426 -1805 -783 -252 -149 -569
-370 -740 -515 -199 -168 -413 -404 -498 -549 -26 -45 -35 -50 -229 -145 -112
-55 -329 -169 -483 -255 -154 -85 -314 -174 -356 -197 -78 -42 -94 -59 -84
-92 14 -43 48 -35 278 69 286 131 689 303 695 298 2 -3 -15 -46 -38 -97 -90
-200 -96 -221 -191 -636 l-33 -143 -137 -74 c-75 -41 -187 -105 -249 -141
-101 -61 -111 -69 -108 -93 6 -50 37 -40 230 73 101 59 198 117 217 128 l34
21 -6 -26 c-16 -64 -48 -351 -59 -535 -6 -112 -14 -206 -17 -211 -3 -4 -78
-49 -166 -99 -536 -307 -546 -314 -512 -367 13 -18 26 -26 48 -26 56 0 190 53
410 161 l220 108 -7 -222 c-3 -122 -1 -395 5 -607 7 -212 14 -565 18 -785 l6
-400 -274 -181 c-151 -100 -429 -292 -619 -427 -190 -136 -346 -243 -348 -238
-1 4 9 37 22 73 114 302 168 813 146 1386 -13 367 -24 493 -110 1357 -76 759
-96 1165 -80 1610 22 597 99 962 272 1285 150 282 366 491 576 557 224 70 494
-22 744 -254 52 -49 105 -88 131 -98 l43 -16 190 84 c104 47 288 133 409 192
526 255 899 415 1525 652 124 46 384 148 579 225 284 112 742 286 759 288 2 0
-45 -53 -105 -118z m1507 -1132 c-62 -66 -118 -120 -125 -120 -28 0 -389 -127
-548 -192 -261 -108 -841 -410 -1062 -553 -436 -282 -627 -429 -856 -662 -124
-126 -199 -218 -272 -338 l-37 -60 -242 -104 c-343 -146 -576 -261 -938 -463
-173 -96 -334 -185 -357 -197 -65 -33 -70 -101 -6 -101 13 0 112 41 221 91
108 50 312 140 452 199 140 60 358 154 484 210 126 55 233 99 236 98 4 -2 -21
-68 -56 -148 -64 -147 -105 -289 -159 -550 -14 -69 -32 -129 -38 -133 -7 -4
-124 -67 -262 -138 -285 -149 -443 -235 -598 -327 -99 -58 -108 -66 -105 -90
6 -51 37 -40 271 96 203 119 364 209 601 336 83 44 88 46 83 24 -5 -20 -17
-92 -33 -208 -13 -96 -34 -345 -35 -420 0 -47 -4 -93 -8 -103 -4 -10 -81 -59
-171 -108 -322 -176 -951 -538 -982 -566 -40 -35 -11 -93 45 -93 82 0 381 137
877 403 l215 116 7 -562 c3 -309 11 -713 17 -897 6 -184 10 -378 11 -431 l0
-97 -102 -58 c-389 -219 -766 -468 -1423 -938 -104 -74 -191 -134 -193 -131
-2 2 10 46 27 97 109 330 147 668 138 1243 -6 408 -13 501 -92 1300 -70 713
-82 855 -96 1180 -22 518 5 988 77 1345 107 527 403 964 741 1097 59 24 83 27
178 27 78 0 127 -5 170 -18 160 -49 305 -139 442 -275 82 -81 96 -91 128 -91
44 0 251 90 670 293 511 246 892 409 1465 625 146 55 398 153 560 218 350 139
760 293 779 294 7 0 -37 -54 -99 -120z m2014 -872 c-368 -387 -767 -981 -1129
-1681 -344 -666 -529 -1255 -607 -1932 -19 -170 -16 -651 5 -805 46 -326 126
-560 243 -713 25 -32 47 -64 50 -71 3 -7 -14 -17 -43 -24 -79 -21 -510 -197
-747 -304 -568 -257 -1193 -587 -1656 -876 -270 -168 -486 -316 -1039 -710
-190 -135 -209 -146 -197 -116 133 329 193 866 167 1484 -14 310 -34 554 -101
1230 -85 855 -85 848 -85 1415 0 539 6 636 56 922 74 430 227 754 469 993 143
142 256 206 402 229 196 32 462 -80 662 -277 72 -70 129 -112 155 -112 22 0
291 121 601 270 637 307 836 391 1785 753 94 36 274 107 400 157 231 93 672
259 689 260 4 0 -31 -42 -80 -92z m-9008 -4635 c-74 -384 -168 -662 -298 -883
-97 -166 -190 -250 -369 -335 -242 -114 -481 -119 -636 -15 -71 48 -132 95
-133 101 0 3 39 32 88 64 131 87 229 166 542 434 736 633 776 670 810 750 23
58 22 24 -4 -116z m1518 -1113 c-33 -180 -105 -456 -150 -577 -76 -204 -197
-415 -284 -497 -180 -168 -481 -272 -686 -237 -38 7 -94 23 -124 37 -53 24
-190 121 -190 134 0 4 39 33 88 65 130 86 228 165 542 434 734 630 756 650
802 737 12 24 23 42 25 41 1 -1 -9 -63 -23 -137z"/>
<path d="M8610 6625 c-120 -30 -489 -170 -890 -338 -632 -265 -799 -344 -1225
-582 -154 -86 -310 -172 -347 -191 -79 -40 -97 -64 -73 -100 8 -13 23 -24 32
-24 9 0 95 37 192 81 97 45 336 150 531 234 195 84 445 192 555 240 110 48
349 150 530 227 688 292 824 357 862 415 34 51 -42 68 -167 38z"/>
<path d="M7370 5206 c-127 -45 -780 -385 -999 -521 -93 -57 -108 -78 -76 -105
20 -17 23 -15 280 135 116 67 348 197 517 288 300 162 368 202 368 219 0 13
-20 9 -90 -16z"/>
<path d="M8390 4896 c-202 -57 -963 -429 -1590 -778 -341 -190 -783 -453 -797
-475 -20 -31 -5 -70 32 -79 64 -16 292 82 730 315 441 235 958 507 1319 695
187 97 361 193 387 212 51 37 95 97 84 114 -8 14 -110 11 -165 -4z"/>
<path d="M8080 3858 c-98 -27 -758 -374 -812 -425 -33 -32 -38 -81 -10 -106
31 -28 74 -20 143 24 35 23 192 116 348 206 156 91 301 176 323 189 44 28 118
99 118 114 0 12 -63 11 -110 -2z"/>
<path d="M21670 8309 c-136 -17 -248 -75 -342 -177 -193 -209 -184 -537 20
-739 151 -150 401 -203 612 -129 192 67 333 233 360 426 54 376 -255 670 -650
619z"/>
<path d="M18027 6840 c-391 -49 -730 -220 -982 -493 -255 -276 -413 -629 -477
-1062 -17 -117 -17 -509 0 -635 63 -459 249 -852 538 -1135 315 -310 748 -474
1190 -451 307 16 550 94 790 252 85 56 270 228 327 304 l26 35 1 -267 0 -268
465 0 465 0 0 1835 0 1835 -465 0 -465 0 0 -262 0 -263 -32 40 c-105 130 -230
237 -388 336 -140 87 -292 145 -469 180 -119 23 -407 34 -524 19z m641 -825
c351 -73 639 -356 732 -718 54 -213 52 -478 -5 -694 -96 -364 -375 -631 -740
-709 -83 -18 -266 -20 -352 -5 -383 70 -681 374 -779 796 -16 66 -19 119 -18
295 0 199 2 222 26 311 142 526 622 832 1136 724z"/>
<path d="M28465 6840 c-867 -99 -1445 -657 -1581 -1530 -26 -162 -26 -538 0
-700 60 -383 206 -705 439 -970 352 -401 923 -615 1521 -572 179 13 283 30
419 68 430 120 807 422 1022 819 42 79 107 233 120 288 l7 27 -498 0 -499 0
-25 -47 c-61 -116 -196 -250 -309 -308 -196 -100 -508 -112 -728 -30 -207 78
-390 253 -474 455 -30 71 -63 198 -74 287 l-7 53 1343 2 1344 3 9 50 c14 83
13 499 -2 600 -33 219 -84 387 -172 570 -239 496 -676 814 -1258 916 -134 24
-463 34 -597 19z m465 -781 c313 -79 542 -305 601 -591 10 -51 19 -110 19
-130 l0 -38 -870 0 c-843 0 -870 1 -870 19 0 42 53 221 85 290 118 247 335
415 602 466 110 21 321 13 433 -16z"/>
<path d="M10795 6768 c4 -13 246 -837 539 -1833 l533 -1810 504 -2 504 -3 329
1268 c181 697 332 1273 336 1280 3 7 157 -563 340 -1268 l334 -1280 501 0 500
0 533 1828 c293 1005 533 1830 532 1835 0 4 -198 7 -439 7 -410 0 -440 -1
-445 -17 -2 -10 -148 -633 -322 -1385 -175 -753 -321 -1368 -324 -1368 -3 0
-156 608 -339 1352 -183 743 -338 1366 -343 1385 l-9 33 -489 0 -489 0 -10
-37 c-5 -21 -161 -641 -346 -1378 -184 -737 -339 -1348 -343 -1358 -5 -13
-446 1852 -640 2711 l-14 62 -469 0 -469 0 5 -22z"/>
<path d="M21290 4955 l0 -1835 460 0 460 0 0 1835 0 1835 -460 0 -460 0 0
-1835z"/>
<path d="M22740 6788 c0 -2 303 -826 674 -1833 l674 -1830 563 -3 564 -2 674
1822 c370 1003 676 1829 678 1836 4 10 -95 12 -488 10 l-494 -3 -460 -1397
c-253 -768 -462 -1399 -465 -1401 -3 -3 -213 626 -466 1396 l-462 1402 -496 3
c-273 1 -496 1 -496 0z"/>
<path d="M30990 6410 l0 -380 795 0 c437 0 795 -2 795 -5 0 -2 -360 -489 -800
-1082 l-800 -1078 0 -372 0 -373 1320 0 1320 0 0 380 0 380 -790 0 c-434 0
-790 2 -790 5 0 2 356 479 790 1060 l790 1056 0 394 0 395 -1315 0 -1315 0 0
-380z"/>
</g>
</svg>
