<?xml version="1.0" standalone="no"?>
<!DOCTYPE svg PUBLIC "-//W3C//DTD SVG 20010904//EN"
 "http://www.w3.org/TR/2001/REC-SVG-20010904/DTD/svg10.dtd">
<svg version="1.0" xmlns="http://www.w3.org/2000/svg"
 width="2994.000000pt" height="2861.000000pt" viewBox="0 0 2994.000000 2861.000000"
 preserveAspectRatio="xMidYMid meet">

<g transform="translate(0.000000,2861.000000) scale(0.100000,-0.100000)"
fill="#000000" stroke="none">
<path d="M15715 28539 c-888 -47 -1678 -196 -2655 -500 -951 -296 -1528 -504
-2144 -773 -733 -321 -1733 -855 -2461 -1314 -868 -547 -1439 -977 -1983
-1491 -493 -467 -722 -772 -1081 -1438 -242 -449 -536 -1115 -575 -1303 -8
-41 -38 -160 -65 -265 -28 -104 -62 -253 -76 -329 -14 -77 -48 -229 -75 -337
-236 -945 -329 -1972 -347 -3814 -6 -693 3 -1250 37 -2365 57 -1834 46 -2867
-41 -3945 -29 -360 -112 -1101 -124 -1113 -2 -3 -19 8 -37 23 -31 26 -36 27
-108 22 -135 -11 -294 -68 -453 -163 -246 -147 -1079 -763 -1641 -1212 -775
-621 -1156 -961 -1391 -1242 -79 -95 -368 -517 -409 -597 -23 -46 -30 -114
-17 -155 13 -38 61 -88 105 -109 26 -12 32 -24 48 -89 37 -153 120 -291 245
-411 380 -362 995 -509 1675 -398 508 82 1039 298 1533 623 257 169 444 333
638 559 64 74 127 138 151 151 22 13 142 77 266 141 483 252 889 476 1625 897
1883 1077 1765 1012 1779 990 10 -16 -30 -620 -65 -987 -32 -342 -95 -874
-104 -883 -2 -3 -19 8 -37 23 -31 26 -36 27 -108 22 -168 -14 -352 -92 -586
-250 -350 -236 -1016 -732 -1484 -1106 -946 -756 -1320 -1105 -1572 -1470
-110 -159 -245 -371 -262 -413 -40 -95 1 -194 98 -239 26 -12 32 -24 48 -89
37 -153 120 -291 245 -411 324 -309 826 -465 1381 -429 611 39 1231 261 1828
656 260 171 441 330 639 559 l113 131 273 144 c601 315 841 448 2144 1193 842
481 2254 1274 2424 1361 23 13 36 15 44 7 7 -7 7 -80 -2 -248 -11 -220 -44
-680 -56 -798 -56 -534 -102 -925 -110 -934 -2 -2 -19 9 -37 24 -31 26 -36 27
-108 22 -164 -14 -351 -92 -570 -239 -446 -300 -1196 -866 -1806 -1363 -708
-577 -1056 -913 -1266 -1222 -110 -163 -242 -370 -259 -408 -44 -97 -5 -199
95 -246 26 -12 32 -24 48 -89 38 -156 121 -293 250 -415 109 -103 211 -173
350 -240 310 -149 656 -211 1032 -185 610 41 1227 263 1822 656 263 173 438
326 639 560 l113 130 273 144 c608 319 830 442 2144 1193 1638 936 2855 1607
5035 2777 662 355 1057 564 1660 880 931 487 1013 532 1165 633 192 128 317
235 440 377 146 167 164 214 105 270 -27 25 -38 28 -132 34 -98 6 -266 -2
-463 -24 l-90 -9 -35 28 c-184 147 -346 577 -450 1194 -73 437 -95 734 -95
1327 0 592 18 847 96 1365 138 908 456 1943 929 3020 430 978 1166 2365 1818
3425 644 1046 1114 1707 1809 2541 281 338 426 534 555 752 15 25 37 52 50 61
27 17 440 150 953 307 412 127 518 171 598 253 64 64 91 108 117 192 24 80 25
134 4 180 -21 44 -114 130 -211 194 -91 60 -446 237 -613 306 -1071 439 -3176
688 -4725 559 -442 -37 -956 -120 -1413 -228 -56 -14 -104 -22 -106 -18 -2 3
25 44 61 91 63 81 207 295 265 393 15 25 37 52 50 61 25 16 542 182 1013 326
417 127 521 180 603 309 32 50 36 65 40 136 4 71 1 89 -27 161 -36 93 -64 125
-170 195 -84 56 -416 222 -582 293 -371 156 -884 291 -1579 415 -792 141
-2026 221 -2800 181 -336 -18 -775 -61 -982 -96 -25 -4 -38 -3 -38 4 0 7 47
68 105 137 221 261 412 523 527 718 15 25 37 52 50 61 25 16 537 181 1013 326
355 108 461 155 546 239 74 75 88 128 71 267 -16 127 -43 195 -95 240 -133
114 -600 339 -947 455 -703 235 -1668 401 -2720 469 -478 30 -1038 38 -1395
19z m2308 -2566 c-223 -233 -260 -273 -416 -455 -65 -76 -125 -142 -135 -147
-9 -5 -84 -28 -167 -51 -201 -56 -525 -157 -955 -297 -1203 -390 -2040 -759
-3225 -1421 -517 -289 -861 -500 -1360 -836 -611 -411 -1003 -720 -1456 -1149
-366 -345 -606 -632 -815 -976 -38 -63 -82 -128 -99 -146 -21 -23 -82 -56
-205 -111 -216 -96 -810 -395 -1065 -536 -104 -58 -404 -224 -665 -370 -261
-145 -558 -309 -660 -363 -102 -54 -196 -107 -209 -119 -89 -80 -40 -211 79
-209 37 0 108 29 385 158 442 205 714 326 1185 528 812 347 798 342 787 315
-3 -7 -46 -102 -96 -211 -133 -290 -258 -609 -279 -713 -11 -49 -40 -168 -65
-264 -25 -96 -58 -238 -72 -315 -15 -77 -46 -219 -70 -315 -24 -96 -53 -220
-65 -275 -12 -55 -29 -108 -39 -117 -9 -9 -133 -81 -276 -159 -553 -301 -916
-516 -955 -566 -29 -37 -26 -79 9 -114 56 -56 70 -51 481 191 510 301 684 400
697 400 9 0 12 -8 8 -22 -2 -13 -14 -77 -24 -143 -69 -417 -116 -906 -142
-1470 -7 -143 -16 -269 -20 -281 -4 -13 -71 -57 -181 -119 -288 -164 -1440
-836 -1486 -868 -57 -39 -82 -80 -82 -139 0 -60 41 -112 103 -129 138 -37 619
156 1386 555 123 64 227 116 232 116 4 0 5 -305 2 -677 -5 -644 4 -1343 27
-2053 23 -692 40 -1437 42 -1876 3 -447 2 -473 -15 -492 -11 -12 -98 -71 -195
-133 -600 -382 -1111 -733 -2227 -1529 -615 -438 -690 -490 -705 -490 -7 0
-10 6 -7 14 164 427 263 817 341 1341 125 843 144 1852 61 3155 -28 423 -93
1159 -180 2015 -241 2374 -275 2868 -275 4030 0 1086 56 1784 201 2500 192
952 585 1748 1133 2297 425 426 890 633 1323 589 209 -21 473 -101 684 -207
280 -140 484 -288 744 -539 153 -148 295 -234 388 -235 54 0 838 354 1567 710
1329 648 2187 1013 3895 1660 603 228 824 314 1535 598 691 276 1717 661 1763
662 12 0 -48 -69 -170 -197z m3835 -2846 c-106 -111 -217 -228 -246 -260 -30
-32 -64 -64 -76 -72 -12 -8 -148 -56 -302 -106 -1048 -342 -1933 -734 -3029
-1344 -542 -301 -775 -443 -1285 -780 -757 -499 -1222 -869 -1725 -1370 -336
-335 -520 -568 -749 -951 -50 -85 -74 -115 -98 -127 -18 -8 -238 -103 -488
-210 -1108 -474 -1352 -595 -2560 -1269 -261 -145 -558 -309 -660 -363 -202
-106 -235 -131 -251 -185 -14 -45 7 -100 46 -126 58 -38 99 -26 396 111 582
270 846 387 1800 794 207 88 533 229 725 314 488 216 664 291 670 285 2 -3
-22 -64 -55 -136 -157 -343 -275 -643 -300 -761 -10 -47 -39 -165 -64 -261
-25 -96 -57 -236 -71 -310 -25 -134 -130 -582 -147 -630 -8 -20 -77 -59 -372
-207 -929 -467 -1997 -1061 -2067 -1150 -29 -37 -26 -79 9 -114 57 -56 66 -53
506 206 658 388 829 484 1529 859 180 97 332 176 337 176 13 0 11 -20 -16
-177 -74 -427 -121 -891 -156 -1528 -6 -115 -16 -216 -22 -223 -11 -14 -11
-14 -422 -237 -399 -217 -623 -341 -950 -528 -397 -226 -1422 -824 -1473 -860
-57 -38 -82 -80 -82 -139 0 -39 6 -54 31 -83 61 -69 138 -68 364 7 352 117
769 323 2180 1077 176 94 323 171 327 171 4 0 5 -327 2 -727 -7 -728 1 -1274
31 -2243 38 -1226 51 -2015 33 -2049 -8 -14 -60 -51 -128 -89 -629 -354 -1247
-736 -1880 -1160 -437 -294 -725 -495 -1570 -1097 -627 -446 -725 -515 -739
-515 -15 0 -14 1 10 62 206 515 350 1251 409 2101 22 319 31 859 20 1288 -21
922 -64 1483 -255 3369 -146 1449 -182 1856 -221 2565 -21 383 -30 1541 -15
1915 57 1370 241 2271 621 3045 513 1042 1309 1669 2027 1596 338 -34 720
-190 1063 -434 144 -102 390 -321 390 -346 0 -22 141 -153 199 -185 46 -25 61
-28 119 -24 61 4 103 20 457 177 443 197 595 268 1165 546 865 421 1582 743
2390 1073 471 193 801 320 1840 712 135 51 522 203 860 337 1026 408 2036 791
2093 793 12 0 -51 -73 -175 -203z m5202 -2093 c0 -3 -80 -90 -179 -192 -436
-456 -748 -838 -1197 -1467 -841 -1176 -1798 -2886 -2324 -4155 -355 -857
-645 -1871 -804 -2815 -76 -447 -114 -791 -137 -1230 -15 -288 -6 -1030 15
-1255 80 -838 244 -1452 509 -1903 58 -98 179 -266 243 -336 20 -22 34 -45 32
-51 -2 -6 -75 -35 -163 -64 -874 -292 -2446 -995 -3750 -1676 -1466 -766
-2420 -1340 -3660 -2200 -218 -152 -403 -283 -1400 -991 -329 -235 -361 -256
-370 -247 -3 3 12 52 34 109 307 820 445 1941 412 3339 -21 867 -70 1529 -221
3025 -186 1839 -215 2170 -262 3025 -18 318 -18 1735 0 2030 79 1335 281 2209
681 2950 523 970 1274 1530 1956 1461 133 -13 337 -63 481 -117 237 -88 555
-276 745 -441 112 -96 229 -208 229 -219 0 -16 140 -133 213 -177 100 -62 103
-61 557 140 426 189 602 272 1170 548 1399 681 2230 1032 4175 1765 187 70
669 259 1070 418 745 296 1062 418 1610 618 300 110 335 121 335 108z m-22955
-11621 c-11 -96 -82 -472 -126 -666 -75 -340 -173 -709 -255 -960 -159 -487
-445 -1039 -681 -1312 -308 -358 -924 -655 -1460 -705 -276 -26 -584 36 -788
158 -74 44 -367 262 -380 281 -6 11 91 83 275 203 279 181 518 371 1091 864
146 126 409 353 585 504 293 252 525 452 1134 979 364 315 499 465 574 644 16
37 31 67 34 67 2 0 1 -26 -3 -57z m3815 -3000 c-85 -485 -229 -1079 -362
-1482 -155 -474 -446 -1033 -674 -1296 -166 -191 -451 -388 -744 -513 -516
-221 -971 -255 -1365 -103 -107 41 -196 97 -377 238 l-151 117 29 23 c16 13
122 86 236 163 341 228 497 351 1038 816 1610 1384 1994 1717 2111 1835 115
116 208 246 255 357 41 94 41 59 4 -155z m5020 -2285 c-86 -506 -254 -1181
-388 -1563 -168 -479 -449 -1000 -675 -1250 -159 -175 -441 -365 -720 -485
-512 -219 -972 -253 -1362 -101 -108 42 -206 104 -381 240 l-147 114 29 24
c16 14 115 81 219 151 339 226 509 359 1029 806 525 451 994 855 1366 1176
200 173 400 346 445 384 378 326 501 464 581 652 16 38 30 61 32 51 2 -9 -11
-99 -28 -199z"/>
<path d="M21905 16789 c-264 -57 -1228 -416 -2140 -797 -1207 -504 -1836 -783
-2330 -1036 -287 -147 -322 -166 -1070 -583 -286 -159 -603 -334 -705 -388
-102 -54 -196 -107 -209 -119 -103 -91 -19 -241 115 -205 21 6 210 90 419 186
505 233 627 287 1395 615 360 154 810 349 1000 433 437 193 892 388 1625 698
933 394 1757 753 1936 842 181 91 359 241 359 303 0 17 -9 37 -21 48 -32 29
-249 30 -374 3z"/>
<path d="M18810 13221 c-139 -39 -296 -109 -732 -327 -341 -171 -772 -396
-1093 -572 -115 -63 -259 -142 -318 -174 -179 -98 -537 -307 -613 -359 -82
-55 -104 -81 -104 -122 0 -38 49 -87 87 -87 44 0 102 31 529 282 622 367 803
467 1749 973 204 109 397 214 430 233 82 48 195 140 195 157 0 20 -48 18 -130
-4z"/>
<path d="M21399 12425 c-106 -21 -203 -53 -384 -125 -899 -359 -2700 -1270
-4195 -2123 -367 -209 -1459 -846 -1508 -880 -57 -38 -82 -80 -82 -139 0 -39
6 -54 31 -83 61 -69 141 -68 364 6 330 110 766 324 1910 934 917 489 2195
1161 3175 1670 705 366 769 403 890 525 87 86 124 148 111 183 -6 14 -19 31
-30 36 -27 15 -201 12 -282 -4z"/>
<path d="M20570 9790 c-42 -10 -111 -32 -153 -49 -206 -82 -824 -392 -1287
-646 -118 -65 -293 -160 -388 -212 -209 -113 -247 -136 -290 -177 -54 -50 -75
-100 -70 -168 7 -89 58 -146 141 -155 76 -9 111 4 234 86 184 121 320 202 801
478 924 530 1018 589 1140 718 81 85 94 109 70 133 -17 17 -111 14 -198 -8z"/>
</g>
</svg>
